# xmcd
#
# Track frame offsets: 
#        150
#        16046
#        29347
#        43916
#        57392
#        75497
#        91802
#        108677
#        123548
#        134184
#
# Disc length: 1977 seconds
#
# Revision: 0
# Processed by: cddbd v1.5.2PL0 Copyright (c) Steve Scherf et al.
# Submitted via: ExactAudioCopyFreeDBPlugin 1.0
#
DISCID=8607b70a
DTITLE=Jackson C Frank - Jackson C Frank
DYEAR=1965
DGENRE=FLAC
TTITLE0=Blues Run The Game
TTITLE1=Don't Look Back
TTITLE2=Kimbie
TTITLE3=Yellow Walls
TTITLE4=Here Come The Blues
TTITLE5=Milk And Honey
TTITLE6=My Name Is Carnival
TTITLE7=I Want To Be Alone (dialogue)
TTITLE8=Just Like Anything
TTITLE9=You Never Wanted Me
EXTD=
EXTT0=
EXTT1=
EXTT2=
EXTT3=
EXTT4=
EXTT5=
EXTT6=
EXTT7=
EXTT8=
EXTT9=
PLAYORDER=
